<?xml version="1.0" encoding="UTF-8" standalone="no"?>
<!DOCTYPE svg PUBLIC "-//W3C//DTD SVG 1.1//EN"
 "http://www.w3.org/Graphics/SVG/1.1/DTD/svg11.dtd">
<!-- Generated by graphviz version 2.43.0 (0)
 -->
<!-- Title: snakemake_dag Pages: 1 -->
<svg width="209pt" height="260pt"
 viewBox="0.00 0.00 208.59 260.00" xmlns="http://www.w3.org/2000/svg" xmlns:xlink="http://www.w3.org/1999/xlink">
<g id="graph0" class="graph" transform="scale(1 1) rotate(0) translate(4 256)">
<title>snakemake_dag</title>
<polygon fill="white" stroke="transparent" points="-4,4 -4,-256 204.59,-256 204.59,4 -4,4"/>
<!-- 1 -->
<g id="node1" class="node">
<title>1</title>
<path fill="none" stroke="#78d856" stroke-width="2" d="M170.09,-108C170.09,-108 91.09,-108 91.09,-108 85.09,-108 79.09,-102 79.09,-96 79.09,-96 79.09,-84 79.09,-84 79.09,-78 85.09,-72 91.09,-72 91.09,-72 170.09,-72 170.09,-72 176.09,-72 182.09,-78 182.09,-84 182.09,-84 182.09,-96 182.09,-96 182.09,-102 176.09,-108 170.09,-108"/>
<text text-anchor="middle" x="130.59" y="-87.5" font-family="sans" font-size="10.00">star_second_pass</text>
</g>
<!-- 6 -->
<g id="node6" class="node">
<title>6</title>
<path fill="none" stroke="#56a2d8" stroke-width="2" d="M145.59,-36C145.59,-36 115.59,-36 115.59,-36 109.59,-36 103.59,-30 103.59,-24 103.59,-24 103.59,-12 103.59,-12 103.59,-6 109.59,0 115.59,0 115.59,0 145.59,0 145.59,0 151.59,0 157.59,-6 157.59,-12 157.59,-12 157.59,-24 157.59,-24 157.59,-30 151.59,-36 145.59,-36"/>
<text text-anchor="middle" x="130.59" y="-15.5" font-family="sans" font-size="10.00">multiqc</text>
</g>
<!-- 1&#45;&gt;6 -->
<g id="edge7" class="edge">
<title>1&#45;&gt;6</title>
<path fill="none" stroke="grey" stroke-width="2" d="M130.59,-71.7C130.59,-63.98 130.59,-54.71 130.59,-46.11"/>
<polygon fill="grey" stroke="grey" stroke-width="2" points="134.09,-46.1 130.59,-36.1 127.09,-46.1 134.09,-46.1"/>
</g>
<!-- 2 -->
<g id="node2" class="node">
<title>2</title>
<path fill="none" stroke="#56d8c9" stroke-width="2" d="M56.59,-252C56.59,-252 26.59,-252 26.59,-252 20.59,-252 14.59,-246 14.59,-240 14.59,-240 14.59,-228 14.59,-228 14.59,-222 20.59,-216 26.59,-216 26.59,-216 56.59,-216 56.59,-216 62.59,-216 68.59,-222 68.59,-228 68.59,-228 68.59,-240 68.59,-240 68.59,-246 62.59,-252 56.59,-252"/>
<text text-anchor="middle" x="41.59" y="-231.5" font-family="sans" font-size="10.00">trim</text>
</g>
<!-- 2&#45;&gt;1 -->
<g id="edge2" class="edge">
<title>2&#45;&gt;1</title>
<path fill="none" stroke="grey" stroke-width="2" d="M25.42,-215.95C9.75,-197.27 -9.6,-166.93 5.59,-144 19.94,-122.32 45.13,-109.49 69.16,-101.9"/>
<polygon fill="grey" stroke="grey" stroke-width="2" points="70.36,-105.19 78.99,-99.05 68.41,-98.47 70.36,-105.19"/>
</g>
<!-- 4 -->
<g id="node4" class="node">
<title>4</title>
<path fill="none" stroke="#56d87b" stroke-width="2" d="M162.09,-180C162.09,-180 99.09,-180 99.09,-180 93.09,-180 87.09,-174 87.09,-168 87.09,-168 87.09,-156 87.09,-156 87.09,-150 93.09,-144 99.09,-144 99.09,-144 162.09,-144 162.09,-144 168.09,-144 174.09,-150 174.09,-156 174.09,-156 174.09,-168 174.09,-168 174.09,-174 168.09,-180 162.09,-180"/>
<text text-anchor="middle" x="130.59" y="-159.5" font-family="sans" font-size="10.00">star_first_pass</text>
</g>
<!-- 2&#45;&gt;4 -->
<g id="edge4" class="edge">
<title>2&#45;&gt;4</title>
<path fill="none" stroke="grey" stroke-width="2" d="M63.59,-215.7C74.8,-206.88 88.59,-196.03 100.74,-186.47"/>
<polygon fill="grey" stroke="grey" stroke-width="2" points="103.14,-189.04 108.84,-180.1 98.82,-183.54 103.14,-189.04"/>
</g>
<!-- 5 -->
<g id="node5" class="node">
<title>5</title>
<path fill="none" stroke="#d8a456" stroke-width="2" d="M56.59,-180C56.59,-180 26.59,-180 26.59,-180 20.59,-180 14.59,-174 14.59,-168 14.59,-168 14.59,-156 14.59,-156 14.59,-150 20.59,-144 26.59,-144 26.59,-144 56.59,-144 56.59,-144 62.59,-144 68.59,-150 68.59,-156 68.59,-156 68.59,-168 68.59,-168 68.59,-174 62.59,-180 56.59,-180"/>
<text text-anchor="middle" x="41.59" y="-159.5" font-family="sans" font-size="10.00">fastqc</text>
</g>
<!-- 2&#45;&gt;5 -->
<g id="edge6" class="edge">
<title>2&#45;&gt;5</title>
<path fill="none" stroke="grey" stroke-width="2" d="M41.59,-215.7C41.59,-207.98 41.59,-198.71 41.59,-190.11"/>
<polygon fill="grey" stroke="grey" stroke-width="2" points="45.09,-190.1 41.59,-180.1 38.09,-190.1 45.09,-190.1"/>
</g>
<!-- 3 -->
<g id="node3" class="node">
<title>3</title>
<path fill="none" stroke="#d85656" stroke-width="2" d="M188.59,-252C188.59,-252 144.59,-252 144.59,-252 138.59,-252 132.59,-246 132.59,-240 132.59,-240 132.59,-228 132.59,-228 132.59,-222 138.59,-216 144.59,-216 144.59,-216 188.59,-216 188.59,-216 194.59,-216 200.59,-222 200.59,-228 200.59,-228 200.59,-240 200.59,-240 200.59,-246 194.59,-252 188.59,-252"/>
<text text-anchor="middle" x="166.59" y="-231.5" font-family="sans" font-size="10.00">star_index</text>
</g>
<!-- 3&#45;&gt;1 -->
<g id="edge3" class="edge">
<title>3&#45;&gt;1</title>
<path fill="none" stroke="grey" stroke-width="2" d="M175.22,-215.68C183.13,-197.29 192.27,-167.69 182.59,-144 178.1,-133.02 170.12,-123.08 161.73,-114.86"/>
<polygon fill="grey" stroke="grey" stroke-width="2" points="164.08,-112.26 154.34,-108.09 159.35,-117.42 164.08,-112.26"/>
</g>
<!-- 3&#45;&gt;4 -->
<g id="edge5" class="edge">
<title>3&#45;&gt;4</title>
<path fill="none" stroke="grey" stroke-width="2" d="M157.69,-215.7C153.59,-207.73 148.64,-198.1 144.09,-189.26"/>
<polygon fill="grey" stroke="grey" stroke-width="2" points="147.07,-187.4 139.38,-180.1 140.85,-190.6 147.07,-187.4"/>
</g>
<!-- 4&#45;&gt;1 -->
<g id="edge1" class="edge">
<title>4&#45;&gt;1</title>
<path fill="none" stroke="grey" stroke-width="2" d="M130.59,-143.7C130.59,-135.98 130.59,-126.71 130.59,-118.11"/>
<polygon fill="grey" stroke="grey" stroke-width="2" points="134.09,-118.1 130.59,-108.1 127.09,-118.1 134.09,-118.1"/>
</g>
</g>
</svg>
