<?xml version="1.0" encoding="UTF-8" standalone="no"?>
<!DOCTYPE svg PUBLIC "-//W3C//DTD SVG 1.1//EN"
 "http://www.w3.org/Graphics/SVG/1.1/DTD/svg11.dtd">
<!-- Generated by graphviz version 2.43.0 (0)
 -->
<!-- Title: snakemake_dag Pages: 1 -->
<svg width="212pt" height="260pt"
 viewBox="0.00 0.00 212.00 260.00" xmlns="http://www.w3.org/2000/svg" xmlns:xlink="http://www.w3.org/1999/xlink">
<g id="graph0" class="graph" transform="scale(1 1) rotate(0) translate(4 256)">
<title>snakemake_dag</title>
<polygon fill="white" stroke="transparent" points="-4,4 -4,-256 208,-256 208,4 -4,4"/>
<!-- 1 -->
<g id="node1" class="node">
<title>1</title>
<path fill="none" stroke="#78d856" stroke-width="2" d="M166.5,-108C166.5,-108 87.5,-108 87.5,-108 81.5,-108 75.5,-102 75.5,-96 75.5,-96 75.5,-84 75.5,-84 75.5,-78 81.5,-72 87.5,-72 87.5,-72 166.5,-72 166.5,-72 172.5,-72 178.5,-78 178.5,-84 178.5,-84 178.5,-96 178.5,-96 178.5,-102 172.5,-108 166.5,-108"/>
<text text-anchor="middle" x="127" y="-87.5" font-family="sans" font-size="10.00">star_second_pass</text>
</g>
<!-- 5 -->
<g id="node5" class="node">
<title>5</title>
<path fill="none" stroke="#56d87b" stroke-width="2" d="M90,-36C90,-36 60,-36 60,-36 54,-36 48,-30 48,-24 48,-24 48,-12 48,-12 48,-6 54,0 60,0 60,0 90,0 90,0 96,0 102,-6 102,-12 102,-12 102,-24 102,-24 102,-30 96,-36 90,-36"/>
<text text-anchor="middle" x="75" y="-15.5" font-family="sans" font-size="10.00">multiqc</text>
</g>
<!-- 1&#45;&gt;5 -->
<g id="edge7" class="edge">
<title>1&#45;&gt;5</title>
<path fill="none" stroke="grey" stroke-width="2" d="M114.15,-71.7C107.97,-63.39 100.46,-53.28 93.68,-44.14"/>
<polygon fill="grey" stroke="grey" stroke-width="2" points="96.48,-42.04 87.71,-36.1 90.86,-46.22 96.48,-42.04"/>
</g>
<!-- 2 -->
<g id="node2" class="node">
<title>2</title>
<path fill="none" stroke="#56a2d8" stroke-width="2" d="M74,-252C74,-252 44,-252 44,-252 38,-252 32,-246 32,-240 32,-240 32,-228 32,-228 32,-222 38,-216 44,-216 44,-216 74,-216 74,-216 80,-216 86,-222 86,-228 86,-228 86,-240 86,-240 86,-246 80,-252 74,-252"/>
<text text-anchor="middle" x="59" y="-231.5" font-family="sans" font-size="10.00">trim</text>
</g>
<!-- 2&#45;&gt;1 -->
<g id="edge2" class="edge">
<title>2&#45;&gt;1</title>
<path fill="none" stroke="grey" stroke-width="2" d="M59.98,-215.69C61.63,-197.06 66.07,-167 78,-144 83.39,-133.61 91.37,-123.74 99.33,-115.41"/>
<polygon fill="grey" stroke="grey" stroke-width="2" points="101.94,-117.74 106.56,-108.21 97.01,-112.78 101.94,-117.74"/>
</g>
<!-- 4 -->
<g id="node4" class="node">
<title>4</title>
<path fill="none" stroke="#d8a456" stroke-width="2" d="M162.5,-180C162.5,-180 99.5,-180 99.5,-180 93.5,-180 87.5,-174 87.5,-168 87.5,-168 87.5,-156 87.5,-156 87.5,-150 93.5,-144 99.5,-144 99.5,-144 162.5,-144 162.5,-144 168.5,-144 174.5,-150 174.5,-156 174.5,-156 174.5,-168 174.5,-168 174.5,-174 168.5,-180 162.5,-180"/>
<text text-anchor="middle" x="131" y="-159.5" font-family="sans" font-size="10.00">star_first_pass</text>
</g>
<!-- 2&#45;&gt;4 -->
<g id="edge4" class="edge">
<title>2&#45;&gt;4</title>
<path fill="none" stroke="grey" stroke-width="2" d="M76.8,-215.7C85.6,-207.14 96.38,-196.66 106,-187.3"/>
<polygon fill="grey" stroke="grey" stroke-width="2" points="108.68,-189.58 113.41,-180.1 103.8,-184.57 108.68,-189.58"/>
</g>
<!-- 6 -->
<g id="node6" class="node">
<title>6</title>
<path fill="none" stroke="#d85656" stroke-width="2" d="M42,-108C42,-108 12,-108 12,-108 6,-108 0,-102 0,-96 0,-96 0,-84 0,-84 0,-78 6,-72 12,-72 12,-72 42,-72 42,-72 48,-72 54,-78 54,-84 54,-84 54,-96 54,-96 54,-102 48,-108 42,-108"/>
<text text-anchor="middle" x="27" y="-87.5" font-family="sans" font-size="10.00">fastqc</text>
</g>
<!-- 2&#45;&gt;6 -->
<g id="edge8" class="edge">
<title>2&#45;&gt;6</title>
<path fill="none" stroke="grey" stroke-width="2" d="M54.2,-215.88C51.37,-205.53 47.81,-192.05 45,-180 40.2,-159.4 35.49,-135.95 32.09,-118.29"/>
<polygon fill="grey" stroke="grey" stroke-width="2" points="35.46,-117.3 30.15,-108.13 28.59,-118.6 35.46,-117.3"/>
</g>
<!-- 3 -->
<g id="node3" class="node">
<title>3</title>
<path fill="none" stroke="#c6d856" stroke-width="2" d="M192,-252C192,-252 148,-252 148,-252 142,-252 136,-246 136,-240 136,-240 136,-228 136,-228 136,-222 142,-216 148,-216 148,-216 192,-216 192,-216 198,-216 204,-222 204,-228 204,-228 204,-240 204,-240 204,-246 198,-252 192,-252"/>
<text text-anchor="middle" x="170" y="-231.5" font-family="sans" font-size="10.00">star_index</text>
</g>
<!-- 3&#45;&gt;1 -->
<g id="edge3" class="edge">
<title>3&#45;&gt;1</title>
<path fill="none" stroke="grey" stroke-width="2" d="M178.09,-215.89C185.62,-197.43 194.25,-167.52 184,-144 179.07,-132.68 170.39,-122.68 161.27,-114.51"/>
<polygon fill="grey" stroke="grey" stroke-width="2" points="163.5,-111.81 153.58,-108.09 159.01,-117.19 163.5,-111.81"/>
</g>
<!-- 3&#45;&gt;4 -->
<g id="edge5" class="edge">
<title>3&#45;&gt;4</title>
<path fill="none" stroke="grey" stroke-width="2" d="M160.36,-215.7C155.87,-207.64 150.44,-197.89 145.48,-188.98"/>
<polygon fill="grey" stroke="grey" stroke-width="2" points="148.45,-187.14 140.53,-180.1 142.34,-190.54 148.45,-187.14"/>
</g>
<!-- 4&#45;&gt;1 -->
<g id="edge1" class="edge">
<title>4&#45;&gt;1</title>
<path fill="none" stroke="grey" stroke-width="2" d="M130.01,-143.7C129.57,-135.98 129.04,-126.71 128.55,-118.11"/>
<polygon fill="grey" stroke="grey" stroke-width="2" points="132.04,-117.89 127.98,-108.1 125.05,-118.29 132.04,-117.89"/>
</g>
<!-- 6&#45;&gt;5 -->
<g id="edge6" class="edge">
<title>6&#45;&gt;5</title>
<path fill="none" stroke="grey" stroke-width="2" d="M38.87,-71.7C44.5,-63.47 51.35,-53.48 57.57,-44.42"/>
<polygon fill="grey" stroke="grey" stroke-width="2" points="60.5,-46.33 63.27,-36.1 54.73,-42.37 60.5,-46.33"/>
</g>
</g>
</svg>
